<svg xmlns="http://www.w3.org/2000/svg" xmlns:xlink="http://www.w3.org/1999/xlink" viewBox="0 0 500 500"><defs><style>.cls-1,.cls-15,.cls-17,.cls-23{fill:none;}.cls-2{fill:#c6aad1;}.cls-3{fill:#fff;}.cls-4{fill:#9087c1;}.cls-5{fill:url(#Polka_Dots);}.cls-6{font-size:56.12px;}.cls-11,.cls-6{fill:#9e1f63;font-family:Gabriola;}.cls-7{letter-spacing:-0.01em;}.cls-8{letter-spacing:-0.01em;}.cls-9{letter-spacing:0em;}.cls-10{letter-spacing:0em;}.cls-11{font-size:48.84px;}.cls-12{letter-spacing:-0.01em;}.cls-13{letter-spacing:-0.01em;}.cls-14{fill:#f7c0d9;}.cls-15{stroke:#f2dfed;stroke-width:0.25px;}.cls-15,.cls-17,.cls-23{stroke-miterlimit:10;}.cls-16{fill:#f27390;opacity:0.27;}.cls-17,.cls-23{stroke:#231f20;}.cls-17{stroke-width:0.5px;}.cls-18{fill:#594a42;}.cls-19{fill:#231f20;}.cls-20{fill:#76c487;}.cls-21{fill:#008047;}.cls-22{fill:#f4b4d2;}</style><pattern id="Polka_Dots" data-name="Polka Dots" width="67.18" height="64.41" patternUnits="userSpaceOnUse" viewBox="0 0 67.18 64.41"><rect class="cls-1" width="67.18" height="64.41"/><rect class="cls-2" width="67.18" height="64.41"/><circle class="cls-3" cx="7.28" cy="9.45" r="4.19"/><circle class="cls-3" cx="11.19" cy="32.2" r="3.91"/><circle class="cls-3" cx="24.87" cy="15.61" r="3.11"/><circle class="cls-3" cx="55.9" cy="31.29" r="4.49"/><circle class="cls-3" cx="11.89" cy="52.67" r="4.61"/><circle class="cls-3" cx="47.09" cy="11.04" r="3.94"/><circle class="cls-3" cx="35.04" cy="52.4" r="4.34"/><circle class="cls-3" cx="51.03" cy="50.51" r="4.34"/><circle class="cls-3" cx="27.99" cy="37.59" r="3.91"/><circle class="cls-3" cx="59.84" cy="15.61" r="3.94"/></pattern></defs><title>Sara</title><g id="Background"><rect class="cls-4" width="500" height="500"/></g><g id="Body"><path class="cls-3" d="M479.71,316.44c-1.31,9.53-28,46.57-55,49.54-27.26,3-77.61-28.93-87.28-82.63L335,275.76l8.8-.53a169.61,169.61,0,0,0,20.69,32.23c15,18.43,27.54,33.77,45.69,35.83,22.8,2.59,41.8-17.19,49.5-26.66a19,19,0,0,1,12.95-7.23S480.82,308.36,479.71,316.44Z"/><path class="cls-3" d="M291.65,442l3.27-74.15a15.88,15.88,0,0,0-15.86-16.58h0a15.88,15.88,0,0,0-15.88,15.88v65.24a15.86,15.86,0,0,1-3.8,10.3q-1.41,1.65-2.79,3.46c-9.75,12.82-14.85,27-6.07,33.72s23.29,1.29,33.57-11.11c7.06-8.53,8.21-19.15,7.54-26.38Z"/><path class="cls-3" d="M300.46,441.43l-3.25-73.63a15.88,15.88,0,0,1,15.87-16.58h0A15.87,15.87,0,0,1,329,367.1v65.24a15.82,15.82,0,0,0,3.81,10.3q1.39,1.65,2.78,3.46c9.76,12.82,14.85,27,6.07,33.72s-23.81,1.71-33.56-11.11c-6.71-8.82-9.8-17.14-7.91-26Z"/><path class="cls-3" d="M385.58,286.24c-1.86-2.24-3-5.11-4.05-6.59-3-4.2-4.66-7.09-5.43-9.93-1.65-6.14-3.73-8.22-6.31-14-1.62-3.6-3.08-5.25-6.25-9.68-1.85-2.59-4.48-14.51-7.53-21.06-2.35-5.08-1.58-9.62-5.62-22-.15-.46-1-1.46-1.1-1.94a29.21,29.21,0,0,0-12.82-20,40.67,40.67,0,0,0-19.41-6.56h-.33a4.29,4.29,0,0,0-1.93.46c-.54-.77-1.09-1.58-1.68-2.47-2.76-4.25-2.59-4.48-4-5.33-6.4-3.77-23.72-4.59-30.71,2.05-2.35,2.23,1.21,11.34-.57,14.16-.89,1.4-3.24,3.57-6.25,6.28l.48-1.92a2.47,2.47,0,0,0-2.4-3.05h-1.7a30.23,30.23,0,0,0-15.81,6.1A28.1,28.1,0,0,0,241.63,210a.78.78,0,0,1,0,.14c-1.79,9.93-4.9,13.73-6,19-1.37,6.43-6.2,17.91-7.71,20.31-2.58,4.12-1.53,7.42-2.84,10.76-2.1,5.34-3.64,8-5,13.67a27.17,27.17,0,0,1-3.86,8.68c-1.17,1.87-1.34,3.9-3.1,6.1-4.33,5.41-13.15,9.58-12.23,12.91.25.89,1.92,12.46,6.33,16.09a2.43,2.43,0,0,0,3.43-.41c1-1.25,2.52-5.28,3.9,0a8,8,0,0,0,1.83,2.23c1.33.18,2-4.32,2.56-6.55a9.33,9.33,0,0,0,.24-1.31A17.34,17.34,0,0,1,222,303.4C232.53,288.27,253.12,244,254.55,241a1.57,1.57,0,0,1,.19-.33L263,228.29a2.58,2.58,0,0,0,.38-1l1.35-7.91,57.31-1.88.47,2.42a4.33,4.33,0,0,0,.8,1.79l9.85,12.84a4.56,4.56,0,0,1,.38.59c2.25,4.25,27.2,51.07,39.94,67.11a15.56,15.56,0,0,1,3.49,8.48,8.3,8.3,0,0,0,.32,1.76c.72,2.39-.24,8.9,4.22,8.1.54-.1,1.22-3.4,1.58-4a2.29,2.29,0,0,1,3.64-.31l0,0a4.27,4.27,0,0,0,6.29,0c4.41-4.79,6.15-15.23,6.43-16.1C400.63,296.66,390.81,292.51,385.58,286.24Z"/><path class="cls-5" d="M360.52,286.23l-21.75-58.49h0l1.09-15.65-5.88-3-4.84-16.51-6.06-13.87-3.91-6.22h-5.88l1.17,3.65,7.63,13.08a14,14,0,0,1,1.45,3.6l2.83,11.65-33-.33L271,207.4l5.82-18.32c1-3.1,1-5.73,2.29-7.94l.87-.93L271.72,182a48.21,48.21,0,0,0-4.5,12.88c-1.18,6.18-.64,10.3-3.8,14.53a16.13,16.13,0,0,1-5.77,4.46L263,228.43c-3.14,6.42-8.21,11.13-12.25,18.26a48.21,48.21,0,0,0-3.71,8.35,142.63,142.63,0,0,1-7.38,18.22L234.85,283l-29.47,71.35c-5.19,5.58-4.41,8.47-4.06,9.32,1.8,4.51,13.14,7.36,21.68,5.15,1.78-.47,3.8-1.24,5.75-.32,3,1.39,1.28,6.28,4.07,8,9.87,6.21,30.82,6.6,35.91,1.93,1.85-1.7-1.32-4.05.67-5.79,2.9-2.52,17.33-5.88,22.36,0,1.41,1.66.19,3.24,2,4.18,11.19,5.73,32.18,4.77,40-1.93,2-1.73,2.16-3.8,3.73-5.46,3-3.21,8.35-.57,14.9.64s16.1,1.51,29.14-3.21Z"/><path class="cls-2" d="M285.73,467.68c-7.64,13.22-26,18.49-34,13.17s-10.37-14,2.71-32.13c18.64-25.88-3.37,13.6,3.43,20.36C267.17,478.31,306.47,431.76,285.73,467.68Z"/><path class="cls-2" d="M274.37,463.91l-17.66-8.21a2.14,2.14,0,0,1-1.16-1.93h0a2.13,2.13,0,0,1,2.88-2l19.2,7.07c1.59.59,5.38,4.57,4,5.6l-5.64-.22C275.35,464.72,275.1,464.28,274.37,463.91Z"/><path class="cls-2" d="M306.88,467.68c7.64,13.22,26,18.49,34,13.17s10.38-14-2.71-32.13c-18.64-25.88,3.38,13.6-3.42,20.36C325.44,478.31,286.13,431.76,306.88,467.68Z"/><path class="cls-2" d="M333.29,456.23l-16.68,10a2.13,2.13,0,0,1-2.25-.11h0a2.15,2.15,0,0,1,0-3.51l16.61-11.95c1.38-1,6.8-1.9,6.89-.21l-3.35,4.56C334.52,455.87,334,455.83,333.29,456.23Z"/><text class="cls-6" transform="matrix(0.77, -0.02, 0.17, 0.98, 41.25, 203.19)">Sa<tspan class="cls-7" x="39.8" y="0">r</tspan><tspan x="55.67" y="0">a </tspan><tspan class="cls-8" x="85.54" y="0">W</tspan><tspan class="cls-9" x="124.88" y="0">in</tspan><tspan class="cls-10" x="159.73" y="0">t</tspan><tspan class="cls-9" x="173.06" y="0">ers</tspan></text><text class="cls-11" transform="translate(65.43 254.7) scale(1.25 1)"><tspan class="cls-12">A</tspan><tspan class="cls-13" x="23.83" y="0">g</tspan><tspan x="41.45" y="0">e 6</tspan></text></g><g id="Face_and_Hair" data-name="Face and Hair"><path class="cls-3" d="M246.93,52.36l25.7,28.1A2.81,2.81,0,0,1,271.5,85l-25,8.88a2.8,2.8,0,0,1-3.74-2.58l-.69-37A2.8,2.8,0,0,1,246.93,52.36Z"/><polygon class="cls-14" points="268.79 85.91 246.97 93.67 247.25 61.07 268.79 85.91"/><line class="cls-15" x1="247.01" y1="89.02" x2="265.57" y2="82.19"/><line class="cls-15" x1="246.9" y1="84.76" x2="262.67" y2="78.85"/><path class="cls-3" d="M280,69.18c-16.24,2.48-29.3,13.06-36.26,25.7-10.29,18.7-.6,36.13,13.05,58,6.37,10.2,11.1,14.3,16.41,17.12,10.7,5.7,25.82,7.27,38.22,2.36,19.84-7.87,23.74-28.77,25.72-39.34,1.27-6.84-.62-40.74-22.71-55.38C298.24,66.9,282.72,68.76,280,69.18Z"/><ellipse class="cls-16" cx="318.16" cy="139.13" rx="10.44" ry="3.97" transform="matrix(0.98, -0.18, 0.18, 0.98, -20.17, 60.93)"/><line class="cls-17" x1="294.65" y1="142.94" x2="311.85" y2="134.47"/><line class="cls-17" x1="294.36" y1="142.94" x2="313.65" y2="138.81"/><line class="cls-17" x1="294.68" y1="142.97" x2="313.24" y2="144.45"/><ellipse class="cls-16" cx="269.86" cy="149.56" rx="10.44" ry="3.97" transform="translate(-22.92 52.22) rotate(-10.61)"/><path class="cls-3" d="M300.76,43.47l-16,37.3,36.09,2.31-13.91-39.4A3.31,3.31,0,0,0,300.76,43.47Z"/><polygon class="cls-14" points="292.11 81.21 316.25 82.75 304.08 51.01 292.11 81.21"/><line class="cls-15" x1="314.52" y1="78.23" x2="293.9" y2="76.69"/><line class="cls-15" x1="313.07" y1="74.04" x2="295.51" y2="72.63"/><line class="cls-17" x1="290.52" y1="143.91" x2="270.95" y2="144.29"/><line class="cls-17" x1="290.78" y1="143.78" x2="271.76" y2="148.87"/><line class="cls-17" x1="290.51" y1="143.95" x2="275.21" y2="153.58"/><path class="cls-18" d="M246.07,84.78a79.07,79.07,0,0,0-6.7,16.43,45.67,45.67,0,0,0-.56,10.06c.36,7.52,2.19,11.74,5.91,22.73,6.1,18,5.38,19.14,8.44,22.63a35.9,35.9,0,0,0,16.32,10.5,1,1,0,0,0,1.23-1.08l-.33-2.27A1,1,0,0,1,272,163l2.62,2.6a1,1,0,0,0,.87.26l1.86-.36a1,1,0,0,0,.32-1.78A43.33,43.33,0,0,1,266.6,154c-5.87-7.24-7.73-14.64-9.21-20.49a68.74,68.74,0,0,1-1.84-11.11.21.21,0,0,1,0-.13h0a28.42,28.42,0,0,0,5.88-12.57l.7-3.66a1.2,1.2,0,0,1,2-.62l9.15,9.13a1.18,1.18,0,0,0,2-.64l1.35-7.84a1,1,0,0,1,1.75-.4l8.74,12.17a1.2,1.2,0,0,0,2.12-.37l3.35-12a1,1,0,0,1,1.73-.29l3.64,5.22a1,1,0,0,0,1.7-.21l4-10.64a1.18,1.18,0,0,1,1.77-.57,49.59,49.59,0,0,1,12.6,12.39c2.85,4.07,11,15.7,7.56,29.57A31,31,0,0,1,319,153.6a1,1,0,0,0,1,1.55l2.5-.77a1,1,0,0,1,1.26,1c-.18,1.84-1.2,3.77-.1,3.89,3.32.35,12.17-12.08,13.69-18.39,1.26-5.22,2.72-40-17.74-62.08-15.27-16.47-41.26-10.92-46-10C267.29,70,252.33,73.72,246.07,84.78Z"/><path class="cls-18" d="M329.46,93.47c5.25-1,10.82-.35,12.74.43,12.26,5,13.09,23.33,13.14,25,.19,5.93-1.34,6.63-1.29,13.51A49.57,49.57,0,0,0,358,151.06l5.23,4-7.75-.88,1.77,7.35-9.74-6.87-2,7.26L338,130.8Z"/><path class="cls-18" d="M238.76,109.27a21,21,0,0,0-12,7.94c-1.05,1.49-4.94,5-4.67,11.26.48,11.41,6.91,21.08,11.33,26.54a4.65,4.65,0,0,1,.79,1.63,48.82,48.82,0,0,0,2,5.8l2.93,6.94a7.72,7.72,0,0,1-.05,5.09l-2.5,6.9,6.12-6.25,3.15,8.16,3.41-9.44,5,4.61-5.56-28.1Z"/><path class="cls-19" d="M283.27,129.59c.23-.52.68-1.26.45-1.8-1.14-2.61-3.54-6.2-6.47-6.88-.51-.12-2.18-.4-2.23-.19s.56.42,1.09.65L270.69,123,268,124.1a9.28,9.28,0,0,1-3.8,1.28c-3.16.34-5.67-1.56-5.88-1.17s1.18,1.54,2.7,2.21a7,7,0,0,0,3.33.55,24.81,24.81,0,0,0-2.11,3.95c-.38,1.26-1.31,1.87-2.33,2.66s-2.07,1.16-2,1.31,1,.07,5.15-.92c0,0,2.66,2.69,3.53,2.94s.12,1.11.12,1.11l-2.39,5.13.16.78,2.61-4.89a4.67,4.67,0,0,1,1.21-.81,4.48,4.48,0,0,1,.93-.32l1,.17s1.92-.08,3.6-.23a10.37,10.37,0,0,0,4.38-1.48,17.2,17.2,0,0,0,2.75-3.17A15.74,15.74,0,0,0,283.27,129.59Z"/><path class="cls-3" d="M267.9,126.68A4.48,4.48,0,0,0,266,128.2c-.91,1.27-2.27,3.3-2.11,3.92a20.33,20.33,0,0,0,2.28,3.57,6.61,6.61,0,0,0,2.08,1.23c.9.32,1.72.38,4,.22a24.74,24.74,0,0,0,4.1-.44,9.41,9.41,0,0,0,4.11-3c1.6-1.73,3.58-3.87,2.81-5.86a5.67,5.67,0,0,0-1.16-1.43c-.59-.59-1.16-1.14-1.81-1.76a6.15,6.15,0,0,0-1.68-.93C276.86,123,270.55,125.6,267.9,126.68Z"/><ellipse class="cls-20" cx="273.96" cy="130.34" rx="5.67" ry="6.31" transform="translate(117.54 390.3) rotate(-84.41)"/><ellipse class="cls-21" cx="274.5" cy="129.82" rx="1.13" ry="1.2" transform="translate(1.4 262.57) rotate(-51.23)"/><ellipse class="cls-3" cx="270.05" cy="129.46" rx="2.18" ry="1.06" transform="translate(10.33 278.56) rotate(-55.47)"/><ellipse class="cls-3" cx="271.94" cy="131.49" rx="0.83" ry="0.89" transform="translate(-0.86 261.19) rotate(-51.23)"/><path class="cls-19" d="M297,129.51c-.55-.22-1.44-.46-1.67-1-1.13-2.61-2.1-6.74-.49-9.1.28-.42,1.27-1.69,1.47-1.57s-.1.66-.31,1.17l5.17-2.27,2.74-1a9.31,9.31,0,0,0,3.7-1.52c2.54-1.78,2.92-4.76,3.37-4.61s.3,1.87-.3,3.32a6.16,6.16,0,0,1-2,2.54,28.71,28.71,0,0,1,4.49,1.49,6.22,6.22,0,0,0,3.67.43c1.47-.1,2.36-.5,2.43-.35s-.68.7-4.4,2.63c0,0,.1,3.65-.35,4.39s.75.87.75.87l5.57,2.18.47.66-5.55-1.86a5.11,5.11,0,0,0-1.48.19,5,5,0,0,0-.91.37l-.6.78s-1.45,1.17-2.78,2.13a10.12,10.12,0,0,1-4.26,1.75,20.07,20.07,0,0,1-4.36-.53A17.79,17.79,0,0,1,297,129.51Z"/><path class="cls-3" d="M305.91,117.56a4.81,4.81,0,0,1,2.53-.14c1.6.33,4.11.93,4.46,1.47a19.89,19.89,0,0,1,1,4,5.78,5.78,0,0,1-.59,2.22c-.4.8-.95,1.38-2.73,2.73a21.58,21.58,0,0,1-3.29,2.31,10.27,10.27,0,0,1-5.17.51c-2.46-.23-5.49-.5-6.42-2.43a5.53,5.53,0,0,1-.23-1.78c0-.8,0-1.56,0-2.42a5.06,5.06,0,0,1,.51-1.75C296.69,120.66,303.19,118.48,305.91,117.56Z"/><ellipse class="cls-20" cx="304.27" cy="124.09" rx="6.18" ry="5.79" transform="matrix(0.98, -0.21, 0.21, 0.98, -19.43, 67.53)"/><ellipse class="cls-21" cx="303.49" cy="124.06" rx="1.13" ry="1.2" transform="translate(16.74 283.02) rotate(-51.23)"/><ellipse class="cls-3" cx="306.43" cy="120.94" rx="1.01" ry="2.3" transform="translate(118.4 391.45) rotate(-76.73)"/><ellipse class="cls-3" cx="306.59" cy="123.62" rx="0.83" ry="0.89" transform="translate(18.24 285.28) rotate(-51.23)"/><ellipse class="cls-22" cx="293.44" cy="142.97" rx="3.68" ry="1.96" transform="translate(-20.41 53.29) rotate(-10.03)"/><path class="cls-23" d="M282.61,158.47c4.24,4.4,13.74,5.25,20.67,2.63,5-1.91,8.35-5.51,8.54-9.13"/></g></svg>